# AST/ASF file generated using VICON BodyLanguage
# -----------------------------------------------
:version 1.10
:name VICON
:units
  mass 1.0
  length 0.45
  angle deg
:documentation
   .ast/.asf automatically generated from VICON data using
   VICON BodyBuilder and BodyLanguage model FoxedUp or BRILLIANT.MOD
:root
   order TX TY TZ RX RY RZ
   axis XYZ
   position 0 0 0  
   orientation 0 0 0 
:bonedata
  begin
     id 1 
     name lhipjoint
     direction 0.570549 -0.739093 0.358072 
     length 2.41801 
     axis 0 0 0  XYZ
  end
  begin
     id 2 
     name lfemur
     direction 0.34202 -0.939693 0  
     length 7.44434  
     axis 0 0 20  XYZ
    dof rx ry rz
    limits (-160.0 20.0)
           (-70.0 70.0)
           (-60.0 70.0)
  end
  begin
     id 3 
     name ltibia
     direction 0.34202 -0.939693 0   
     length 7.60047   
     axis 0 0 20   XYZ
    dof rx
    limits (-10.0 170.0)
  end
  begin
     id 4 
     name lfoot
     direction 0.0909041 -0.249757 0.964032   
     length 2.03437   
     axis -90 7.62852e-016 20   XYZ
    dof rx rz
    limits (-45.0 90.0)
           (-70.0 20.0)
  end
  begin
     id 5 
     name ltoes
     direction 1.53547e-011 -4.2174e-011 1   
     length 1.02054   
     axis -90 7.62852e-016 20   XYZ
    dof rx
    limits (-90.0 20.0)
  end
  begin
     id 6 
     name rhipjoint
     direction -0.558096 -0.746754 0.361784   
     length 2.3932  
     axis 0 0 0  XYZ 
  end
  begin
     id 7 
     name rfemur
     direction -0.34202 -0.939693 0   
     length 7.3886   
     axis 0 0 -20   XYZ
    dof rx ry rz
    limits (-160.0 20.0)
           (-70.0 70.0)
           (-70.0 60.0)
  end
  begin
     id 8 
     name rtibia
     direction -0.34202 -0.939693 0   
     length 7.4839   
     axis 0 0 -20   XYZ
    dof rx
    limits (-10.0 170.0)
 end
 begin
     id 9 
     name rfoot
     direction -0.114619 -0.314914 0.942174   
     length 2.25127  
     axis -90 -7.62852e-016 -20   XYZ
    dof rx rz
    limits (-45.0 90.0)
           (-20.0 70.0)
  end
  begin
     id 10 
     name rtoes
     direction -1.53518e-011 -4.21881e-011 1   
     length 1.11821   
     axis -90 -7.62852e-016 -20   XYZ
    dof rx
    limits (-90.0 20.0)
  end
  begin
     id 11 
     name lowerback
     direction -0.00902269 0.996426 -0.0839821   
     length 2.25052   
     axis 0 0 0   XYZ
    dof rx ry rz
    limits (-20.0 45.0)
           (-30.0 30.0)
           (-30.0 30.0)
  end
  begin
     id 12 
     name upperback
     direction 0.0370973 0.999169 -0.0168941   
     length 2.24876   
     axis 0 0 0   XYZ
    dof rx ry rz
    limits (-20.0 45.0)
           (-30.0 30.0)
           (-30.0 30.0)
  end
  begin
     id 13 
     name thorax
     direction 0.0402726 0.998931 0.0227027   
     length 2.26408   
     axis 0 0 0   XYZ
    dof rx ry rz
    limits (-20.0 45.0)
           (-30.0 30.0)
           (-30.0 30.0)
  end
  begin
     id 14 
     name lowerneck
     direction -0.0733697 0.98508 0.155675   
     length 1.58204   
     axis 0 0 0   XYZ
    dof rx ry rz
    limits (-20.0 45.0)
           (-30.0 30.0)
           (-30.0 30.0)
  end
  begin
     id 15 
     name upperneck
     direction 0.0426554 0.993501 -0.105526   
     length 1.61222   
     axis 0 0 0   XYZ
    dof rx ry rz
    limits (-20.0 45.0)
           (-30.0 30.0)
           (-30.0 30.0)
  end
  begin
     id 16
     name head
     direction 0.020792 0.998384 -0.0528868  
     length 1.61527  
     axis 0 0 0   XYZ
    dof rx ry rz
    limits (-20.0 45.0)
           (-30.0 30.0)
           (-30.0 30.0)
  end
  begin
     id 17 
     name lclavicle
     direction 0.967109 0.155462 -0.201325  
     length 3.59357  
     axis 0 0 0   XYZ
    dof ry rz
    limits (-20.0 10.0)
           (0.0 20.0)
  end
  begin
     id 18 
     name lhumerus
     direction 1 -4.48968e-011 2.38195e-027   
     length 5.38154   
     axis 180 -30 -90   XYZ
    dof rx ry rz
    limits (-60.0 90.0)
           (-90.0 90.0)
           (-90.0 90.0)
  end
  begin
     id 19
     name lradius
     direction 1 -4.48961e-011 4.85371e-027   
     length 3.33312   
     axis 180 -30 -90   XYZ
    dof rx
    limits (-10.0 170.0)
  end
  begin
     id 20
     name lwrist
     direction 1 -4.48961e-011 4.76515e-027   
     length 1.66656   
     axis -3.27502e-015 90 90   XYZ
    dof ry
    limits (-180.0 0.0)
 end
  begin
     id 21 
     name lhand
     direction 1 -4.48951e-011 9.53074e-027   
     length 0.710789   
     axis -6.08098e-015 90 90   XYZ
    dof rx rz
    limits (-90.0 90.0)
           (-45.0 45.0)
  end
  begin
     id 22 
     name lfingers
     direction 1 -4.48953e-011 1.90613e-026   
     length 0.573057   
     axis -1.21619e-014 90 90   XYZ
    dof rx
    limits (0.0 90.0)
  end
  begin
     id 23
     name lthumb
     direction 0.707107 -6.34973e-011 0.707107   
     length 0.822798   
     axis -90 45 -9.86923e-015   XYZ
    dof rx rz
    limits (-45.0 45.0)
           (-45.0 45.0)
  end
  begin
     id 24 
     name rclavicle
     direction -0.9585 0.265289 -0.104398   
     length 3.42039  
     axis 0 0 0   XYZ 
    dof ry rz
    limits (-10.0 20.0)
           (-20.0 0.0)
  end
  begin
     id 25 
     name rhumerus
     direction -1 -4.48977e-011 2.21478e-027  
     length 5.16954   
     axis 180 30 90   XYZ
    dof rx ry rz
    limits (-90.0 60.0)
           (-90.0 90.0)
           (-90.0 90.0)
  end
  begin
     id 26 
     name rradius
     direction -1 -4.48967e-011 5.63677e-027   
     length 3.38287   
     axis 180 30 90   XYZ
    dof rx
    limits (-10.0 170.0)
  end
  begin
     id 27 
     name rwrist
     direction -1 -4.48967e-011 4.76501e-027   
     length 1.69144   
     axis -3.27502e-015 -90 -90   XYZ
    dof ry
    limits (-180.0 0.0)
  end
  begin
     id 28
     name rhand
     direction -1 -4.48902e-011 9.53292e-027   
     length 0.817967   
     axis -6.08098e-015 -90 -90   XYZ
    dof rx rz
    limits (-90.0 90.0)
           (-45.0 45.0)
  end
  begin
     id 29
     name rfingers
     direction -1 -4.49012e-011 1.90561e-026   
     length 0.659466   
     axis -1.21619e-014 -90 -90   XYZ
    dof rx
    limits (0.0 90.0)
  end
  begin
     id 30
     name rthumb
     direction -0.707107 -6.34944e-011 0.707107   
     length 0.946865   
     axis -90 -45 9.86923e-015   XYZ
    dof rx rz
    limits (-45.0 45.0)
           (-45.0 45.0)
  end
:hierarchy
  begin
    root lhipjoint rhipjoint lowerback
    lhipjoint lfemur
    lfemur ltibia
    ltibia lfoot
    lfoot ltoes
    rhipjoint rfemur
    rfemur rtibia
    rtibia rfoot
    rfoot rtoes
    lowerback upperback
    upperback thorax
    thorax lowerneck lclavicle rclavicle
    lowerneck upperneck
    upperneck head
    lclavicle lhumerus
    lhumerus lradius
    lradius lwrist
    lwrist lhand lthumb
    lhand lfingers
    rclavicle rhumerus
    rhumerus rradius
    rradius rwrist
    rwrist rhand rthumb
    rhand rfingers
  end

#!OML:ASF F:\twosubjects\two\wednesday\Session 1\Justin1.ASF
:FULLY-SPECIFIED
:DEGREES
41
root 8.83318 17.657 -14.4473 0.423168 -0.211548 -2.52679
lowerback 2.42356 -0.292498 -0.360552
upperback -1.17296 -0.320928 3.4261
thorax -2.54462 -0.124073 3.74908
lowerneck -19.0184 -4.13966 -10.6571
upperneck 17.9776 -4.27601 7.43497
head 9.18396 -1.93513 3.74554
rclavicle -1.98785e-016 -3.02153e-014
rhumerus -12.1593 2.93444 -68.9037
rradius 108.054
rwrist 7.03771
rhand -18.433 28.8132
rfingers 7.12502
rthumb 7.85239 -1.02102
lclavicle -1.98785e-016 -3.02153e-014
lhumerus -11.2762 -2.47734 71.2246
lradius 95.9546
lwrist -42.8174
lhand -7.14059 44.7227
lfingers 7.12502
lthumb 18.7356 73.8405
rfemur -0.862185 -0.44607 19.3854
rtibia 13.5625
rfoot -9.83559 -10.5563
rtoes -4.46585
lfemur -5.0271 -2.75223 -11.2634
ltibia 20.5499
lfoot -13.919 3.37487
ltoes -13.0031
42
root 8.84003 17.6479 -14.4521 0.373991 -0.198224 -2.85284
lowerback 2.57908 -0.251755 -0.000148461
upperback -1.25664 -0.244113 3.5882
thorax -2.72474 -0.0879262 3.71264
lowerneck -18.9804 -4.08326 -10.391
upperneck 17.8911 -4.14649 6.8599
head 9.11573 -1.91817 3.51574
rclavicle 5.46658e-016 -2.14687e-014
rhumerus -10.7843 2.41658 -67.8467
rradius 109.175
rwrist 8.15989
rhand -18.5231 29.4758
rfingers 7.12502
rthumb 7.76546 -0.361604
lclavicle 5.46658e-016 -2.14687e-014
lhumerus -9.83286 -2.09942 70.6238
lradius 97.2033
lwrist -43.736
lhand -7.42515 44.5842
lfingers 7.12502
lthumb 18.4619 73.7281
rfemur -0.946741 -0.489136 19.7062
rtibia 13.8074
rfoot -10.024 -10.5075
rtoes -3.85597
lfemur -4.95794 -2.48876 -10.9163
ltibia 20.5245
lfoot -14.0171 3.22144
ltoes -14.3243
43
root 8.85154 17.6414 -14.4597 0.382418 -0.130151 -2.56457
lowerback 3.02861 -0.279252 -0.384026
upperback -1.62626 -0.273917 3.69675
thorax -3.35699 -0.0837227 4.05429
lowerneck -18.9826 -4.05568 -10.6111
upperneck 18.4097 -4.03287 6.71825
head 9.28755 -1.90206 3.52567
rclavicle -6.13748e-015 1.43125e-014
rhumerus -9.49625 2.23292 -66.5897
rradius 110.149
rwrist 8.69455
rhand -17.7784 29.225
rfingers 7.12502
rthumb 8.48424 -0.584527
lclavicle -6.13748e-015 1.43125e-014
lhumerus -8.82531 -1.57121 69.9499
lradius 98.5954
lwrist -44.2152
lhand -7.22276 44.7845
lfingers 7.12502
lthumb 18.6566 73.9098
rfemur -1.0188 -0.719335 19.3152
rtibia 13.9016
rfoot -10.0698 -10.313
rtoes -3.53829
lfemur -4.99699 -2.47053 -11.2959
ltibia 20.5783
lfoot -13.9664 3.29226
ltoes -16.3332
44
root 8.85617 17.6454 -14.4719 0.477819 -0.183722 -2.374
lowerback 2.73308 -0.299615 -0.425326
upperback -1.49805 -0.315799 3.55001
thorax -3.05448 -0.110273 3.9217
lowerneck -19.2473 -3.979 -10.6644
upperneck 18.5369 -3.97458 7.10452
head 9.38248 -1.83289 3.68065
rclavicle -8.59744e-015 2.54444e-014
rhumerus -7.45254 1.65514 -65.9694
rradius 110.904
rwrist 9.09553
rhand -15.9936 27.2099
rfingers 7.12502
rthumb 10.2063 -2.52247
lclavicle -8.59744e-015 2.54444e-014
lhumerus -6.94775 -1.00973 68.6313
lradius 99.66
lwrist -44.5837
lhand -7.4203 45.1652
lfingers 7.12502
lthumb 18.4666 74.3086
rfemur -1.22274 -0.652218 19.1042
rtibia 14.0029
rfoot -10.0377 -10.3275
rtoes -3.47118
lfemur -5.15127 -2.53123 -11.49
ltibia 20.6142
lfoot -13.9151 3.25792
ltoes -15.272
45
root 8.85677 17.6547 -14.4784 0.535263 -0.276238 -2.47182
lowerback 2.54919 -0.282672 -0.157624
upperback -1.41352 -0.291375 3.43155
thorax -2.86647 -0.107479 3.64243
lowerneck -19.4041 -3.95071 -10.5195
upperneck 18.6188 -4.00078 7.26066
head 9.44145 -1.8153 3.7094
rclavicle -9.20621e-015 3.26007e-014
rhumerus -5.75496 1.04043 -65.5701
rradius 111.621
rwrist 9.72992
rhand -21.1845 31.1758
rfingers 7.12502
rthumb 5.19618 1.25951
lclavicle -9.20621e-015 3.26007e-014
lhumerus -5.21659 -0.418686 67.3103
lradius 100.562
lwrist -44.8122
lhand -7.39994 44.9016
lfingers 7.12502
lthumb 18.4861 74.0432
rfemur -1.42177 -0.492779 19.2335
rtibia 14.2049
rfoot -10.101 -10.396
rtoes -3.55161
lfemur -5.26207 -2.43557 -11.3428
ltibia 20.5968
lfoot -13.8695 3.0868
ltoes -13.7763
46
root 8.85993 17.655 -14.4781 0.485131 -0.299549 -2.35742
lowerback 2.46212 -0.26913 -0.19148
upperback -1.33046 -0.280591 3.34733
thorax -2.73239 -0.104304 3.57167
lowerneck -19.5564 -3.94838 -10.5158
upperneck 18.6958 -4.00313 7.33732
head 9.49756 -1.80551 3.73662
rclavicle 2.86995e-015 1.82882e-014
rhumerus -4.12067 0.467253 -65.0035
rradius 112.219
rwrist 10.3606
rhand -20.9523 30.3363
rfingers 7.12502
rthumb 5.42037 0.425663
lclavicle 2.86995e-015 1.82882e-014
lhumerus -3.5625 0.377552 66.3235
lradius 101.442
lwrist -45.1626
lhand -6.31295 44.1826
lfingers 7.12502
lthumb 19.5315 73.2215
rfemur -1.42561 -0.530118 19.0931
rtibia 14.3236
rfoot -10.1535 -10.3444
rtoes -3.74825
lfemur -5.23019 -2.33662 -11.5038
ltibia 20.618
lfoot -13.8268 3.13663
ltoes -14.7211
47
root 8.85633 17.6482 -14.4839 0.448568 -0.438239 -2.31271
lowerback 2.59526 -0.173954 -0.398935
upperback -1.41083 -0.153191 3.48358
thorax -2.89821 -0.0328669 3.82677
lowerneck -19.3788 -3.98219 -10.9402
upperneck 18.7108 -3.97155 7.46078
head 9.48019 -1.81149 3.8564
rclavicle -4.47266e-016 -1.03368e-014
rhumerus -2.76975 0.0213947 -64.0005
rradius 112.82
rwrist 11.0026
rhand -20.934 29.6343
rfingers 7.12502
rthumb 5.43803 -0.275916
lclavicle -4.47266e-016 -1.03368e-014
lhumerus -2.07668 1.0103 65.6243
lradius 102.124
lwrist -45.5054
lhand -4.94311 43.6554
lfingers 7.12502
lthumb 20.8481 72.5553
rfemur -1.44627 -0.244531 19.0918
rtibia 14.3661
rfoot -10.1688 -10.5239
rtoes -3.94473
lfemur -5.20281 -2.09605 -11.5484
ltibia 20.6708
lfoot -13.6796 3.20211
ltoes -15.8203
48
root 8.85189 17.6491 -14.4905 0.455779 -0.525995 -2.25319
lowerback 2.76995 -0.118402 -0.611184
upperback -1.57924 -0.0766263 3.60903
thorax -3.17648 0.0161401 4.07723
lowerneck -19.043 -3.99253 -11.3281
upperneck 18.8051 -3.93581 7.55594
head 9.45985 -1.82018 3.9627
rclavicle 2.48481e-016 1.11319e-014
rhumerus -1.62147 -0.32174 -62.9785
rradius 113.419
rwrist 11.3045
rhand -20.9828 29.2107
rfingers 7.12502
rthumb 5.39095 -0.700718
lclavicle 2.48481e-016 1.11319e-014
lhumerus -0.802114 1.36987 64.8788
lradius 102.554
lwrist -45.3093
lhand -4.90716 43.873
lfingers 7.12502
lthumb 20.8826 72.769
rfemur -1.55519 0.0270168 19.0705
rtibia 14.4489
rfoot -10.1807 -10.7085
rtoes -4.37527
lfemur -5.27337 -1.8443 -11.5554
ltibia 20.7524
lfoot -13.6127 2.92282
ltoes -14.8685
49
root 8.8607 17.6483 -14.4867 0.359943 -0.392677 -2.21642
lowerback 2.86821 -0.227519 -0.56921
upperback -1.60449 -0.219078 3.59734
thorax -3.24742 -0.0549561 4.05027
lowerneck -19.2853 -3.92011 -11.1396
upperneck 19.125 -3.82074 7.31848
head 9.59485 -1.77893 3.86839
rclavicle -4.72114e-016 -2.14687e-014
rhumerus -0.188477 -0.630106 -62.3568
rradius 113.701
rwrist 11.382
rhand -21.8603 30.0593
rfingers 7.12502
rthumb 4.54369 0.128076
lclavicle -4.72114e-016 -2.14687e-014
lhumerus 0.439837 1.87002 64.174
lradius 102.95
lwrist -45.3982
lhand -4.97707 44.3707
lfingers 7.12502
lthumb 20.8154 73.2742
rfemur -1.4751 -0.230194 18.959
rtibia 14.5008
rfoot -10.2469 -10.5761
rtoes -4.50687
lfemur -5.23848 -1.77352 -11.5882
ltibia 20.886
lfoot -13.9379 2.49089
ltoes -13.2018
50
root 8.86868 17.6437 -14.4898 0.359125 -0.4516 -2.55261
lowerback 2.91522 -0.269782 -0.153129
upperback -1.61215 -0.254579 3.66763
thorax -3.28049 -0.0806416 3.89037
lowerneck -19.4849 -3.83928 -10.9093
upperneck 19.1216 -3.71919 7.16997
head 9.61134 -1.72768 3.791
rclavicle -1.68967e-015 -1.59028e-015
rhumerus 1.29544 -0.98459 -61.8216
rradius 113.854
rwrist 11.7411
rhand -23.1873 31.3692
rfingers 7.12502
rthumb 3.26223 1.41437
lclavicle -1.68967e-015 -1.59028e-015
lhumerus 1.73564 2.63044 63.5005
lradius 103.407
lwrist -45.8814
lhand -3.93097 43.8842
lfingers 7.12502
lthumb 21.8202 72.6741
rfemur -1.46722 -0.225683 19.3088
rtibia 14.4475
rfoot -10.2213 -10.5939
rtoes -4.26881
lfemur -5.30012 -1.64321 -11.2144
ltibia 21.0315
lfoot -14.2157 2.36321
ltoes -13.0173
